# xmcd
#
# Track frame offsets: 
#        150
#        29987
#        58124
#        93349
#        125299
#        159332
#        187039
#        217084
#        252205
#        285705
#        312955
#
# Disc length: 4787 seconds
#
# Revision: 0
# Processed by: cddbd v1.5.2PL0 Copyright (c) Steve Scherf et al.
# Submitted via: ExactAudioCopy v1.3
#
DISCID=a412b10b
DTITLE=Various Artist - Akella Present - vol. 211 - Longtime Of Rocki
DTITLE=n' Blues  CD2
DYEAR=2019
DGENRE=Blues
TTITLE0=Dennis Glen Avina - Evil Man Blues
TTITLE1=Danny Kalb - Mean Old World
TTITLE2=The Ripcords - King Bee
TTITLE3=Jim Ferrer - Black N White Blues
TTITLE4=The Andy Taylor Group - Slow Down
TTITLE5=Burton Brothers Blues Band - Cold Cold Feeling
TTITLE6=Rae Gordon Band - Sea of Blue
TTITLE7=Tony Tucker - As My Guitar Gently Weeps
TTITLE8=The Backyard Blues Connection - Stormy Monday Blues
TTITLE9=Sonic Free Station - Blue Russian Club
TTITLE10=Tubesnakes - Love That Burns
EXTD=
EXTT0=
EXTT1=
EXTT2=
EXTT3=
EXTT4=
EXTT5=
EXTT6=
EXTT7=
EXTT8=
EXTT9=
EXTT10=
PLAYORDER=
